<mxfile host="app.diagrams.net" modified="2022-09-15T10:03:25.236Z" agent="5.0 (Windows NT 10.0; Win64; x64) AppleWebKit/537.36 (KHTML, like Gecko) Chrome/105.0.0.0 Safari/537.36" etag="pyjc30yPhEuugsu029d9" version="20.3.0" type="github">
  <diagram id="ZoeBm14gv-FIVOgGVTnk" name="Trang-1">
    <mxGraphModel dx="1736" dy="900" grid="1" gridSize="10" guides="1" tooltips="1" connect="1" arrows="1" fold="1" page="1" pageScale="1" pageWidth="2339" pageHeight="3300" background="#F1FAEE" math="0" shadow="0">
      <root>
        <mxCell id="0" />
        <mxCell id="1" parent="0" />
        <mxCell id="u--2skOvP2ssveuao409-10" value="" style="edgeStyle=orthogonalEdgeStyle;rounded=0;orthogonalLoop=1;jettySize=auto;html=1;labelBackgroundColor=#F1FAEE;strokeColor=#457B9D;fontColor=#1D3557;" edge="1" parent="1" source="u--2skOvP2ssveuao409-2" target="u--2skOvP2ssveuao409-9">
          <mxGeometry relative="1" as="geometry" />
        </mxCell>
        <mxCell id="u--2skOvP2ssveuao409-2" value="Bắt đầu chương trình" style="ellipse;whiteSpace=wrap;html=1;fillColor=#A8DADC;strokeColor=#457B9D;fontColor=#1D3557;" vertex="1" parent="1">
          <mxGeometry x="320.01" y="10" width="120" height="80" as="geometry" />
        </mxCell>
        <mxCell id="u--2skOvP2ssveuao409-12" value="" style="edgeStyle=orthogonalEdgeStyle;rounded=0;orthogonalLoop=1;jettySize=auto;html=1;labelBackgroundColor=#F1FAEE;strokeColor=#457B9D;fontColor=#1D3557;" edge="1" parent="1" source="u--2skOvP2ssveuao409-9" target="u--2skOvP2ssveuao409-11">
          <mxGeometry relative="1" as="geometry" />
        </mxCell>
        <mxCell id="u--2skOvP2ssveuao409-9" value="work[3][3] = {{&quot;F1&quot;, &quot;T1&quot;, &quot;R1&quot;}, {&quot;F2&quot;, &quot;T2&quot;, &quot;R2&quot;}, {&quot;F3&quot;, &quot;T3&quot;, &quot;R3&quot;}}&lt;br&gt;workLevel[9] = {&quot;F1&quot;, &quot;T1&quot;, &quot;R1&quot;, &quot;F2&quot;, &quot;T2&quot;, &quot;R2&quot;, &quot;F3&quot;, &quot;T3&quot;, &quot;R3&quot;}&lt;br&gt;count = 0" style="rounded=0;whiteSpace=wrap;html=1;fillColor=#A8DADC;strokeColor=#457B9D;fontColor=#1D3557;gradientColor=none;fontStyle=1" vertex="1" parent="1">
          <mxGeometry x="158.13" y="140" width="443.75" height="70" as="geometry" />
        </mxCell>
        <mxCell id="u--2skOvP2ssveuao409-14" value="" style="edgeStyle=orthogonalEdgeStyle;rounded=0;orthogonalLoop=1;jettySize=auto;html=1;labelBackgroundColor=#F1FAEE;strokeColor=#457B9D;fontColor=#1D3557;startArrow=none;" edge="1" parent="1" source="u--2skOvP2ssveuao409-15" target="u--2skOvP2ssveuao409-13">
          <mxGeometry relative="1" as="geometry" />
        </mxCell>
        <mxCell id="u--2skOvP2ssveuao409-35" value="" style="edgeStyle=orthogonalEdgeStyle;rounded=0;orthogonalLoop=1;jettySize=auto;html=1;strokeColor=#457B9D;fontColor=#1D3557;fillColor=#A8DADC;" edge="1" parent="1" source="u--2skOvP2ssveuao409-11" target="u--2skOvP2ssveuao409-20">
          <mxGeometry relative="1" as="geometry" />
        </mxCell>
        <mxCell id="u--2skOvP2ssveuao409-11" value="next_permutation = true" style="rhombus;whiteSpace=wrap;html=1;rounded=0;fillColor=#A8DADC;strokeColor=#457B9D;fontColor=#1D3557;" vertex="1" parent="1">
          <mxGeometry x="292.5" y="250" width="175" height="80" as="geometry" />
        </mxCell>
        <mxCell id="u--2skOvP2ssveuao409-13" value="Kết thúc chương trình" style="ellipse;whiteSpace=wrap;html=1;rounded=0;fillColor=#A8DADC;strokeColor=#457B9D;fontColor=#1D3557;" vertex="1" parent="1">
          <mxGeometry y="640" width="120" height="60" as="geometry" />
        </mxCell>
        <mxCell id="u--2skOvP2ssveuao409-26" value="" style="edgeStyle=orthogonalEdgeStyle;rounded=0;orthogonalLoop=1;jettySize=auto;html=1;strokeColor=#457B9D;fontColor=#1D3557;fillColor=#A8DADC;" edge="1" parent="1" source="u--2skOvP2ssveuao409-20" target="u--2skOvP2ssveuao409-25">
          <mxGeometry relative="1" as="geometry" />
        </mxCell>
        <mxCell id="u--2skOvP2ssveuao409-20" value="i=0&lt;br&gt;checkWork = true" style="rounded=0;whiteSpace=wrap;html=1;fillColor=#A8DADC;strokeColor=#457B9D;fontColor=#1D3557;" vertex="1" parent="1">
          <mxGeometry x="320" y="370" width="120" height="30" as="geometry" />
        </mxCell>
        <mxCell id="u--2skOvP2ssveuao409-28" value="" style="edgeStyle=orthogonalEdgeStyle;rounded=0;orthogonalLoop=1;jettySize=auto;html=1;strokeColor=#457B9D;fontColor=#1D3557;fillColor=#A8DADC;" edge="1" parent="1" source="u--2skOvP2ssveuao409-25" target="u--2skOvP2ssveuao409-27">
          <mxGeometry relative="1" as="geometry" />
        </mxCell>
        <mxCell id="u--2skOvP2ssveuao409-102" value="" style="edgeStyle=orthogonalEdgeStyle;rounded=0;orthogonalLoop=1;jettySize=auto;html=1;strokeColor=#457B9D;fontColor=#1D3557;fillColor=#A8DADC;startArrow=none;" edge="1" parent="1" source="u--2skOvP2ssveuao409-114" target="u--2skOvP2ssveuao409-101">
          <mxGeometry relative="1" as="geometry" />
        </mxCell>
        <mxCell id="u--2skOvP2ssveuao409-25" value="i &amp;lt; 3" style="rhombus;whiteSpace=wrap;html=1;fillColor=#A8DADC;strokeColor=#457B9D;fontColor=#1D3557;rounded=0;" vertex="1" parent="1">
          <mxGeometry x="315" y="430" width="130" height="80" as="geometry" />
        </mxCell>
        <mxCell id="u--2skOvP2ssveuao409-37" value="" style="edgeStyle=orthogonalEdgeStyle;rounded=0;orthogonalLoop=1;jettySize=auto;html=1;strokeColor=#457B9D;fontColor=#1D3557;fillColor=#A8DADC;" edge="1" parent="1" source="u--2skOvP2ssveuao409-27" target="u--2skOvP2ssveuao409-36">
          <mxGeometry relative="1" as="geometry" />
        </mxCell>
        <mxCell id="u--2skOvP2ssveuao409-53" value="" style="edgeStyle=orthogonalEdgeStyle;rounded=0;orthogonalLoop=1;jettySize=auto;html=1;strokeColor=#457B9D;fontColor=#1D3557;fillColor=#A8DADC;startArrow=none;" edge="1" parent="1" source="u--2skOvP2ssveuao409-73" target="u--2skOvP2ssveuao409-52">
          <mxGeometry relative="1" as="geometry" />
        </mxCell>
        <mxCell id="u--2skOvP2ssveuao409-69" value="" style="edgeStyle=orthogonalEdgeStyle;rounded=0;orthogonalLoop=1;jettySize=auto;html=1;strokeColor=#457B9D;fontColor=#1D3557;fillColor=#A8DADC;startArrow=none;" edge="1" parent="1" source="u--2skOvP2ssveuao409-72" target="u--2skOvP2ssveuao409-68">
          <mxGeometry relative="1" as="geometry" />
        </mxCell>
        <mxCell id="u--2skOvP2ssveuao409-36" value="j&amp;lt;3" style="rhombus;whiteSpace=wrap;html=1;fillColor=#A8DADC;strokeColor=#457B9D;fontColor=#1D3557;rounded=0;" vertex="1" parent="1">
          <mxGeometry x="320" y="640" width="120" height="80" as="geometry" />
        </mxCell>
        <mxCell id="u--2skOvP2ssveuao409-55" value="" style="edgeStyle=orthogonalEdgeStyle;rounded=0;orthogonalLoop=1;jettySize=auto;html=1;strokeColor=#457B9D;fontColor=#1D3557;fillColor=#A8DADC;startArrow=none;" edge="1" parent="1" source="u--2skOvP2ssveuao409-67" target="u--2skOvP2ssveuao409-54">
          <mxGeometry relative="1" as="geometry">
            <Array as="points">
              <mxPoint x="380" y="900" />
              <mxPoint x="380" y="900" />
            </Array>
          </mxGeometry>
        </mxCell>
        <mxCell id="u--2skOvP2ssveuao409-52" value="t&amp;lt;9&lt;br&gt;" style="rhombus;whiteSpace=wrap;html=1;fillColor=#A8DADC;strokeColor=#457B9D;fontColor=#1D3557;rounded=0;" vertex="1" parent="1">
          <mxGeometry x="310" y="795" width="140" height="80" as="geometry" />
        </mxCell>
        <mxCell id="u--2skOvP2ssveuao409-27" value="t = 0&lt;br&gt;j = 0" style="rounded=0;whiteSpace=wrap;html=1;fillColor=#A8DADC;strokeColor=#457B9D;fontColor=#1D3557;" vertex="1" parent="1">
          <mxGeometry x="320" y="550" width="120" height="60" as="geometry" />
        </mxCell>
        <mxCell id="u--2skOvP2ssveuao409-57" value="" style="edgeStyle=orthogonalEdgeStyle;rounded=0;orthogonalLoop=1;jettySize=auto;html=1;strokeColor=#457B9D;fontColor=#1D3557;fillColor=#A8DADC;startArrow=none;" edge="1" parent="1" source="u--2skOvP2ssveuao409-74" target="u--2skOvP2ssveuao409-56">
          <mxGeometry relative="1" as="geometry">
            <Array as="points">
              <mxPoint x="540" y="1030" />
            </Array>
          </mxGeometry>
        </mxCell>
        <mxCell id="u--2skOvP2ssveuao409-54" value="work[i][j] = workLevel[t]" style="rhombus;whiteSpace=wrap;html=1;fillColor=#A8DADC;strokeColor=#457B9D;fontColor=#1D3557;rounded=0;" vertex="1" parent="1">
          <mxGeometry x="285" y="970" width="190" height="100" as="geometry" />
        </mxCell>
        <mxCell id="u--2skOvP2ssveuao409-56" value="j=j+1" style="whiteSpace=wrap;html=1;fillColor=#A8DADC;strokeColor=#457B9D;fontColor=#1D3557;rounded=0;" vertex="1" parent="1">
          <mxGeometry x="590" y="1000" width="120" height="60" as="geometry" />
        </mxCell>
        <mxCell id="u--2skOvP2ssveuao409-60" value="" style="endArrow=classic;html=1;rounded=0;strokeColor=#457B9D;fontColor=#1D3557;fillColor=#A8DADC;exitX=0.417;exitY=-0.033;exitDx=0;exitDy=0;exitPerimeter=0;" edge="1" parent="1" source="u--2skOvP2ssveuao409-56">
          <mxGeometry width="50" height="50" relative="1" as="geometry">
            <mxPoint x="470" y="810" as="sourcePoint" />
            <mxPoint x="380" y="620" as="targetPoint" />
            <Array as="points">
              <mxPoint x="640" y="620" />
            </Array>
          </mxGeometry>
        </mxCell>
        <mxCell id="u--2skOvP2ssveuao409-63" value="t=8" style="rhombus;whiteSpace=wrap;html=1;strokeColor=#457B9D;fontColor=#1D3557;fillColor=#A8DADC;gradientColor=none;" vertex="1" parent="1">
          <mxGeometry x="315" y="1160" width="130" height="80" as="geometry" />
        </mxCell>
        <mxCell id="u--2skOvP2ssveuao409-64" value="check = false" style="whiteSpace=wrap;html=1;fillColor=#A8DADC;strokeColor=#457B9D;fontColor=#1D3557;gradientColor=none;" vertex="1" parent="1">
          <mxGeometry x="315" y="1320" width="120" height="60" as="geometry" />
        </mxCell>
        <mxCell id="u--2skOvP2ssveuao409-68" value="i = i+1" style="whiteSpace=wrap;html=1;fillColor=#A8DADC;strokeColor=#457B9D;fontColor=#1D3557;rounded=0;" vertex="1" parent="1">
          <mxGeometry x="150" y="560" width="90" height="40" as="geometry" />
        </mxCell>
        <mxCell id="u--2skOvP2ssveuao409-70" value="" style="endArrow=classic;html=1;rounded=0;strokeColor=#457B9D;fontColor=#1D3557;fillColor=#A8DADC;exitX=0.5;exitY=0;exitDx=0;exitDy=0;" edge="1" parent="1" source="u--2skOvP2ssveuao409-68">
          <mxGeometry width="50" height="50" relative="1" as="geometry">
            <mxPoint x="240" y="610" as="sourcePoint" />
            <mxPoint x="380" y="410" as="targetPoint" />
            <Array as="points">
              <mxPoint x="195" y="410" />
            </Array>
          </mxGeometry>
        </mxCell>
        <mxCell id="u--2skOvP2ssveuao409-15" value="Sai" style="text;html=1;align=center;verticalAlign=middle;resizable=0;points=[];autosize=1;strokeColor=none;fillColor=none;rotation=0;fontColor=#1D3557;" vertex="1" parent="1">
          <mxGeometry x="125" y="275" width="40" height="30" as="geometry" />
        </mxCell>
        <mxCell id="u--2skOvP2ssveuao409-75" value="" style="edgeStyle=orthogonalEdgeStyle;rounded=0;orthogonalLoop=1;jettySize=auto;html=1;labelBackgroundColor=#F1FAEE;strokeColor=#457B9D;fontColor=#1D3557;endArrow=none;" edge="1" parent="1" source="u--2skOvP2ssveuao409-11" target="u--2skOvP2ssveuao409-15">
          <mxGeometry relative="1" as="geometry">
            <mxPoint x="292.5" y="290" as="sourcePoint" />
            <mxPoint x="60" y="640" as="targetPoint" />
          </mxGeometry>
        </mxCell>
        <mxCell id="u--2skOvP2ssveuao409-72" value="Sai" style="text;html=1;align=center;verticalAlign=middle;resizable=0;points=[];autosize=1;strokeColor=none;fillColor=none;fontColor=#1D3557;" vertex="1" parent="1">
          <mxGeometry x="252.5" y="665" width="40" height="30" as="geometry" />
        </mxCell>
        <mxCell id="u--2skOvP2ssveuao409-78" value="" style="edgeStyle=orthogonalEdgeStyle;rounded=0;orthogonalLoop=1;jettySize=auto;html=1;strokeColor=#457B9D;fontColor=#1D3557;fillColor=#A8DADC;endArrow=none;" edge="1" parent="1" source="u--2skOvP2ssveuao409-36" target="u--2skOvP2ssveuao409-72">
          <mxGeometry relative="1" as="geometry">
            <mxPoint x="320" y="680" as="sourcePoint" />
            <mxPoint x="195" y="600" as="targetPoint" />
          </mxGeometry>
        </mxCell>
        <mxCell id="u--2skOvP2ssveuao409-73" value="Đúng" style="text;html=1;align=center;verticalAlign=middle;resizable=0;points=[];autosize=1;strokeColor=none;fillColor=none;fontColor=#1D3557;" vertex="1" parent="1">
          <mxGeometry x="355" y="740" width="50" height="30" as="geometry" />
        </mxCell>
        <mxCell id="u--2skOvP2ssveuao409-79" value="" style="edgeStyle=orthogonalEdgeStyle;rounded=0;orthogonalLoop=1;jettySize=auto;html=1;strokeColor=#457B9D;fontColor=#1D3557;fillColor=#A8DADC;endArrow=none;" edge="1" parent="1" source="u--2skOvP2ssveuao409-36" target="u--2skOvP2ssveuao409-73">
          <mxGeometry relative="1" as="geometry">
            <mxPoint x="380" y="720" as="sourcePoint" />
            <mxPoint x="385" y="795" as="targetPoint" />
          </mxGeometry>
        </mxCell>
        <mxCell id="u--2skOvP2ssveuao409-74" value="Đúng" style="text;html=1;align=center;verticalAlign=middle;resizable=0;points=[];autosize=1;strokeColor=none;fillColor=none;fontColor=#1D3557;" vertex="1" parent="1">
          <mxGeometry x="497.5" y="1005" width="50" height="30" as="geometry" />
        </mxCell>
        <mxCell id="u--2skOvP2ssveuao409-80" value="" style="edgeStyle=orthogonalEdgeStyle;rounded=0;orthogonalLoop=1;jettySize=auto;html=1;strokeColor=#457B9D;fontColor=#1D3557;fillColor=#A8DADC;endArrow=none;" edge="1" parent="1" source="u--2skOvP2ssveuao409-54" target="u--2skOvP2ssveuao409-74">
          <mxGeometry relative="1" as="geometry">
            <mxPoint x="467.5" y="1030" as="sourcePoint" />
            <mxPoint x="580" y="1030" as="targetPoint" />
          </mxGeometry>
        </mxCell>
        <mxCell id="u--2skOvP2ssveuao409-67" value="Đúng" style="text;html=1;align=center;verticalAlign=middle;resizable=0;points=[];autosize=1;strokeColor=none;fillColor=none;fontColor=#1D3557;" vertex="1" parent="1">
          <mxGeometry x="355" y="880" width="50" height="30" as="geometry" />
        </mxCell>
        <mxCell id="u--2skOvP2ssveuao409-81" value="" style="edgeStyle=orthogonalEdgeStyle;rounded=0;orthogonalLoop=1;jettySize=auto;html=1;strokeColor=#457B9D;fontColor=#1D3557;fillColor=#A8DADC;endArrow=none;" edge="1" parent="1" source="u--2skOvP2ssveuao409-52" target="u--2skOvP2ssveuao409-67">
          <mxGeometry relative="1" as="geometry">
            <mxPoint x="380" y="875" as="sourcePoint" />
            <mxPoint x="380" y="983.9473684210527" as="targetPoint" />
            <Array as="points">
              <mxPoint x="380" y="900" />
              <mxPoint x="380" y="900" />
            </Array>
          </mxGeometry>
        </mxCell>
        <mxCell id="u--2skOvP2ssveuao409-95" value="t = t+1" style="rounded=0;whiteSpace=wrap;html=1;strokeColor=#457B9D;fontColor=#1D3557;fillColor=#A8DADC;gradientColor=none;" vertex="1" parent="1">
          <mxGeometry x="110" y="960" width="100" height="40" as="geometry" />
        </mxCell>
        <mxCell id="u--2skOvP2ssveuao409-96" value="" style="endArrow=classic;html=1;rounded=0;strokeColor=#457B9D;fontColor=#1D3557;fillColor=#A8DADC;exitX=0.5;exitY=0;exitDx=0;exitDy=0;" edge="1" parent="1" source="u--2skOvP2ssveuao409-95">
          <mxGeometry width="50" height="50" relative="1" as="geometry">
            <mxPoint x="240" y="810" as="sourcePoint" />
            <mxPoint x="380" y="780" as="targetPoint" />
            <Array as="points">
              <mxPoint x="160" y="780" />
            </Array>
          </mxGeometry>
        </mxCell>
        <mxCell id="u--2skOvP2ssveuao409-97" value="" style="endArrow=classic;html=1;rounded=0;strokeColor=#457B9D;fontColor=#1D3557;fillColor=#A8DADC;exitX=0.5;exitY=1;exitDx=0;exitDy=0;entryX=0.5;entryY=0;entryDx=0;entryDy=0;" edge="1" parent="1" source="u--2skOvP2ssveuao409-54" target="u--2skOvP2ssveuao409-63">
          <mxGeometry width="50" height="50" relative="1" as="geometry">
            <mxPoint x="240" y="1210" as="sourcePoint" />
            <mxPoint x="290" y="1160" as="targetPoint" />
          </mxGeometry>
        </mxCell>
        <mxCell id="u--2skOvP2ssveuao409-98" value="" style="endArrow=classic;html=1;rounded=0;strokeColor=#457B9D;fontColor=#1D3557;fillColor=#A8DADC;exitX=0.5;exitY=1;exitDx=0;exitDy=0;startArrow=none;entryX=0.5;entryY=0;entryDx=0;entryDy=0;" edge="1" parent="1" source="u--2skOvP2ssveuao409-118" target="u--2skOvP2ssveuao409-64">
          <mxGeometry width="50" height="50" relative="1" as="geometry">
            <mxPoint x="240" y="1110" as="sourcePoint" />
            <mxPoint x="380" y="1310" as="targetPoint" />
          </mxGeometry>
        </mxCell>
        <mxCell id="u--2skOvP2ssveuao409-99" value="" style="endArrow=classic;html=1;rounded=0;strokeColor=#457B9D;fontColor=#1D3557;fillColor=#A8DADC;exitX=0;exitY=0.5;exitDx=0;exitDy=0;entryX=0.5;entryY=1;entryDx=0;entryDy=0;" edge="1" parent="1" source="u--2skOvP2ssveuao409-64" target="u--2skOvP2ssveuao409-95">
          <mxGeometry width="50" height="50" relative="1" as="geometry">
            <mxPoint x="240" y="1110" as="sourcePoint" />
            <mxPoint x="290" y="1060" as="targetPoint" />
            <Array as="points">
              <mxPoint x="160" y="1350" />
            </Array>
          </mxGeometry>
        </mxCell>
        <mxCell id="u--2skOvP2ssveuao409-100" value="" style="endArrow=none;html=1;rounded=0;strokeColor=#457B9D;fontColor=#1D3557;fillColor=#A8DADC;entryX=0;entryY=0.5;entryDx=0;entryDy=0;startArrow=none;" edge="1" parent="1" source="u--2skOvP2ssveuao409-120" target="u--2skOvP2ssveuao409-63">
          <mxGeometry width="50" height="50" relative="1" as="geometry">
            <mxPoint x="160" y="1200" as="sourcePoint" />
            <mxPoint x="310" y="1200" as="targetPoint" />
          </mxGeometry>
        </mxCell>
        <mxCell id="u--2skOvP2ssveuao409-104" value="" style="edgeStyle=orthogonalEdgeStyle;rounded=0;orthogonalLoop=1;jettySize=auto;html=1;strokeColor=#457B9D;fontColor=#1D3557;fillColor=#A8DADC;startArrow=none;" edge="1" parent="1" source="u--2skOvP2ssveuao409-110" target="u--2skOvP2ssveuao409-103">
          <mxGeometry relative="1" as="geometry" />
        </mxCell>
        <mxCell id="u--2skOvP2ssveuao409-109" style="edgeStyle=orthogonalEdgeStyle;rounded=0;orthogonalLoop=1;jettySize=auto;html=1;exitX=0.5;exitY=0;exitDx=0;exitDy=0;strokeColor=#457B9D;fontColor=#1D3557;fillColor=#A8DADC;startArrow=none;" edge="1" parent="1" source="u--2skOvP2ssveuao409-112">
          <mxGeometry relative="1" as="geometry">
            <mxPoint x="380" y="230" as="targetPoint" />
            <Array as="points">
              <mxPoint x="805" y="230" />
            </Array>
          </mxGeometry>
        </mxCell>
        <mxCell id="u--2skOvP2ssveuao409-101" value="checkWork = true" style="rhombus;whiteSpace=wrap;html=1;fillColor=#A8DADC;strokeColor=#457B9D;fontColor=#1D3557;rounded=0;" vertex="1" parent="1">
          <mxGeometry x="740" y="430" width="130" height="80" as="geometry" />
        </mxCell>
        <mxCell id="u--2skOvP2ssveuao409-108" style="edgeStyle=orthogonalEdgeStyle;rounded=0;orthogonalLoop=1;jettySize=auto;html=1;exitX=0.5;exitY=1;exitDx=0;exitDy=0;strokeColor=#457B9D;fontColor=#1D3557;fillColor=#A8DADC;" edge="1" parent="1" source="u--2skOvP2ssveuao409-103" target="u--2skOvP2ssveuao409-105">
          <mxGeometry relative="1" as="geometry" />
        </mxCell>
        <mxCell id="u--2skOvP2ssveuao409-103" value="count = count ++" style="whiteSpace=wrap;html=1;fillColor=#A8DADC;strokeColor=#457B9D;fontColor=#1D3557;rounded=0;" vertex="1" parent="1">
          <mxGeometry x="745" y="600" width="120" height="60" as="geometry" />
        </mxCell>
        <mxCell id="u--2skOvP2ssveuao409-105" value="workLevel" style="shape=note;whiteSpace=wrap;html=1;backgroundOutline=1;darkOpacity=0.05;strokeColor=#457B9D;fontColor=#1D3557;fillColor=#A8DADC;gradientColor=none;direction=south;" vertex="1" parent="1">
          <mxGeometry x="755" y="710" width="100" height="80" as="geometry" />
        </mxCell>
        <mxCell id="u--2skOvP2ssveuao409-110" value="Đúng" style="text;html=1;align=center;verticalAlign=middle;resizable=0;points=[];autosize=1;strokeColor=none;fillColor=none;fontColor=#1D3557;" vertex="1" parent="1">
          <mxGeometry x="780" y="530" width="50" height="30" as="geometry" />
        </mxCell>
        <mxCell id="u--2skOvP2ssveuao409-111" value="" style="edgeStyle=orthogonalEdgeStyle;rounded=0;orthogonalLoop=1;jettySize=auto;html=1;strokeColor=#457B9D;fontColor=#1D3557;fillColor=#A8DADC;endArrow=none;" edge="1" parent="1" source="u--2skOvP2ssveuao409-101" target="u--2skOvP2ssveuao409-110">
          <mxGeometry relative="1" as="geometry">
            <mxPoint x="805" y="510" as="sourcePoint" />
            <mxPoint x="805" y="600" as="targetPoint" />
          </mxGeometry>
        </mxCell>
        <mxCell id="u--2skOvP2ssveuao409-112" value="Sai" style="text;html=1;align=center;verticalAlign=middle;resizable=0;points=[];autosize=1;strokeColor=none;fillColor=none;fontColor=#1D3557;" vertex="1" parent="1">
          <mxGeometry x="785" y="315" width="40" height="30" as="geometry" />
        </mxCell>
        <mxCell id="u--2skOvP2ssveuao409-113" value="" style="edgeStyle=orthogonalEdgeStyle;rounded=0;orthogonalLoop=1;jettySize=auto;html=1;exitX=0.5;exitY=0;exitDx=0;exitDy=0;strokeColor=#457B9D;fontColor=#1D3557;fillColor=#A8DADC;endArrow=none;" edge="1" parent="1" source="u--2skOvP2ssveuao409-101" target="u--2skOvP2ssveuao409-112">
          <mxGeometry relative="1" as="geometry">
            <mxPoint x="380" y="230" as="targetPoint" />
            <mxPoint x="805" y="430" as="sourcePoint" />
            <Array as="points">
              <mxPoint x="805" y="380" />
              <mxPoint x="805" y="380" />
            </Array>
          </mxGeometry>
        </mxCell>
        <mxCell id="u--2skOvP2ssveuao409-114" value="Sai" style="text;html=1;align=center;verticalAlign=middle;resizable=0;points=[];autosize=1;strokeColor=none;fillColor=none;fontColor=#1D3557;" vertex="1" parent="1">
          <mxGeometry x="561.88" y="455" width="40" height="30" as="geometry" />
        </mxCell>
        <mxCell id="u--2skOvP2ssveuao409-115" value="" style="edgeStyle=orthogonalEdgeStyle;rounded=0;orthogonalLoop=1;jettySize=auto;html=1;strokeColor=#457B9D;fontColor=#1D3557;fillColor=#A8DADC;endArrow=none;" edge="1" parent="1" source="u--2skOvP2ssveuao409-25" target="u--2skOvP2ssveuao409-114">
          <mxGeometry relative="1" as="geometry">
            <mxPoint x="445" y="470" as="sourcePoint" />
            <mxPoint x="740" y="470" as="targetPoint" />
          </mxGeometry>
        </mxCell>
        <mxCell id="u--2skOvP2ssveuao409-116" value="Đúng" style="text;html=1;align=center;verticalAlign=middle;resizable=0;points=[];autosize=1;strokeColor=none;fillColor=none;fontColor=#1D3557;" vertex="1" parent="1">
          <mxGeometry x="370" y="510" width="50" height="30" as="geometry" />
        </mxCell>
        <mxCell id="u--2skOvP2ssveuao409-118" value="Đúng" style="text;html=1;align=center;verticalAlign=middle;resizable=0;points=[];autosize=1;strokeColor=none;fillColor=none;fontColor=#1D3557;" vertex="1" parent="1">
          <mxGeometry x="350" y="1270" width="50" height="30" as="geometry" />
        </mxCell>
        <mxCell id="u--2skOvP2ssveuao409-119" value="" style="endArrow=none;html=1;rounded=0;strokeColor=#457B9D;fontColor=#1D3557;fillColor=#A8DADC;entryX=0.558;entryY=-0.017;entryDx=0;entryDy=0;exitX=0.5;exitY=1;exitDx=0;exitDy=0;entryPerimeter=0;" edge="1" parent="1" source="u--2skOvP2ssveuao409-63" target="u--2skOvP2ssveuao409-118">
          <mxGeometry width="50" height="50" relative="1" as="geometry">
            <mxPoint x="380" y="1240" as="sourcePoint" />
            <mxPoint x="381.96000000000004" y="1318.98" as="targetPoint" />
          </mxGeometry>
        </mxCell>
        <mxCell id="u--2skOvP2ssveuao409-120" value="Sai" style="text;html=1;align=center;verticalAlign=middle;resizable=0;points=[];autosize=1;strokeColor=none;fillColor=none;fontColor=#1D3557;" vertex="1" parent="1">
          <mxGeometry x="230" y="1185" width="40" height="30" as="geometry" />
        </mxCell>
        <mxCell id="u--2skOvP2ssveuao409-121" value="" style="endArrow=none;html=1;rounded=0;strokeColor=#457B9D;fontColor=#1D3557;fillColor=#A8DADC;entryX=0;entryY=0.5;entryDx=0;entryDy=0;" edge="1" parent="1" target="u--2skOvP2ssveuao409-120">
          <mxGeometry width="50" height="50" relative="1" as="geometry">
            <mxPoint x="160" y="1200" as="sourcePoint" />
            <mxPoint x="315" y="1200" as="targetPoint" />
          </mxGeometry>
        </mxCell>
      </root>
    </mxGraphModel>
  </diagram>
</mxfile>
